<?xml version="1.0" encoding="UTF-8"?>
<svg version="1.1" xmlns="http://www.w3.org/2000/svg" width="378" height="422">
<path d="M0 0 C1.18084671 0.00022659 2.36169342 0.00045319 3.57832336 0.00068665 C4.84306992 0.0161705 6.10781647 0.03165436 7.41088867 0.04760742 C8.71338058 0.05185226 10.0158725 0.05609711 11.35783386 0.06047058 C14.80868009 0.07188605 18.25914325 0.10132401 21.70983887 0.13458252 C25.23578714 0.1653551 28.76179774 0.1789912 32.2878418 0.1940918 C39.19750366 0.22619749 46.10691211 0.27735336 53.01635742 0.34057617 C53.14863235 1.30135071 53.28090729 2.26212524 53.41719055 3.25201416 C53.59340439 4.51261658 53.76961823 5.77321899 53.95117188 7.07202148 C54.21145927 8.94630829 54.21145927 8.94630829 54.477005 10.85845947 C56.16040471 21.72666744 60.26119913 30.71427075 67.01635742 39.34057617 C67.72521544 40.50692412 68.43358812 41.67356724 69.14135742 42.84057617 C71.66576046 46.37474042 74.99289439 48.94082954 78.39135742 51.59057617 C78.9329248 52.01532227 79.47449219 52.44006836 80.0324707 52.87768555 C85.09000735 56.68407568 90.44759503 58.91612736 96.45385742 60.90307617 C97.13319336 61.13124023 97.8125293 61.3594043 98.51245117 61.59448242 C105.01797207 63.53294497 110.79817465 64.72974766 117.57885742 64.71557617 C118.35318115 64.71468994 119.12750488 64.71380371 119.92529297 64.71289062 C129.58476577 64.51833832 138.74899555 62.47901805 147.01635742 57.34057617 C147.85166992 57.01702148 148.68698242 56.6934668 149.54760742 56.36010742 C162.6510511 50.94871692 172.28290707 37.09033312 177.73120117 24.61010742 C180.25901157 18.17917337 181.88527505 12.03119234 182.55029297 5.15771484 C182.63820602 4.25599045 182.72611908 3.35426605 182.81669617 2.42521667 C182.88258438 1.73728531 182.9484726 1.04935394 183.01635742 0.34057617 C190.62257755 0.27097773 198.22876452 0.21771502 205.83523083 0.18513966 C209.36748208 0.16950274 212.89951501 0.14830117 216.43164062 0.11425781 C220.49505679 0.07534014 224.55824463 0.0608507 228.62182617 0.04760742 C229.88657272 0.03212357 231.15131927 0.01663971 232.45439148 0.00068665 C233.63523819 0.00046005 234.8160849 0.00023346 236.03271484 0 C237.06974045 -0.00666183 238.10676605 -0.01332367 239.17521667 -0.02018738 C242.55863021 0.40943311 244.32398599 1.2560433 247.01635742 3.34057617 C250.18091144 7.48354381 250.43790362 11.11406852 250.37712097 16.15498352 C250.37968425 16.93513059 250.38224752 17.71527767 250.38488847 18.51906556 C250.38982427 21.12945804 250.37333703 23.73927031 250.35693359 26.34960938 C250.35608728 28.22224412 250.35656255 30.09487987 250.35826111 31.96751404 C250.3591223 37.04978766 250.34147632 42.13184913 250.32053924 47.21407342 C250.30179323 52.52585797 250.30002363 57.83764731 250.29646301 63.14945984 C250.28713646 73.20747497 250.26251436 83.26539236 250.23241454 93.32336444 C250.19262171 106.91515595 250.1764206 120.50697417 250.15890789 134.09880924 C250.13069375 155.51280478 250.07092821 176.92659403 250.01635742 198.34057617 C219.65635742 198.34057617 189.29635742 198.34057617 158.01635742 198.34057617 C158.01635742 215.50057617 158.01635742 232.66057617 158.01635742 250.34057617 C166.59635742 250.34057617 175.17635742 250.34057617 184.01635742 250.34057617 C184.01635742 263.87057617 184.01635742 277.40057617 184.01635742 291.34057617 C159.36432322 291.45344384 134.71249821 291.54554912 110.06027126 291.59963703 C98.61381721 291.6254185 87.1675351 291.66056814 75.72119141 291.71777344 C65.74453923 291.7676099 55.76801156 291.7998676 45.79123837 291.81101865 C40.5085665 291.81753694 35.22625086 291.83285592 29.94369316 291.86922646 C24.97045803 291.90318956 19.99772554 291.9136284 15.02438545 291.90611458 C13.20027052 291.90748897 11.3761386 291.91741959 9.55212402 291.93660355 C7.05789303 291.96154746 4.5655501 291.95547768 2.0712738 291.94184875 C1.35238352 291.95641296 0.63349323 291.97097717 -0.10718161 291.98598272 C-4.96709302 291.91438927 -7.83421832 290.57705875 -11.63791698 287.80381268 C-14.32219911 284.88513473 -14.10936027 281.37671032 -14.11507034 277.58319187 C-14.11891149 276.62386078 -14.12275263 275.6645297 -14.12671018 274.67612797 C-14.12584369 273.6250701 -14.12497721 272.57401223 -14.12408447 271.49110413 C-14.12705559 270.37232091 -14.13002672 269.25353769 -14.13308787 268.10085195 C-14.14178471 264.33838598 -14.14328395 260.5759518 -14.14477539 256.81347656 C-14.14940278 254.12152455 -14.15440663 251.42957544 -14.15982056 248.73762512 C-14.17339761 241.4154474 -14.17942727 234.09327515 -14.18383121 226.77108693 C-14.18659401 222.20002009 -14.19083136 217.62895535 -14.19533539 213.05788994 C-14.20752592 200.40380136 -14.21782652 187.74971448 -14.22121048 175.09562016 C-14.22143005 174.28589297 -14.22164961 173.47616578 -14.22187583 172.6419014 C-14.22209411 171.83023535 -14.22231239 171.0185693 -14.22253728 170.1823073 C-14.22298075 168.53755383 -14.22342731 166.89280035 -14.22387695 165.24804688 C-14.22409838 164.43219199 -14.22431981 163.6163371 -14.22454795 162.77575933 C-14.22849803 149.5488529 -14.24595939 136.32200149 -14.26923648 123.09511632 C-14.29293754 109.51786436 -14.30541172 95.94064002 -14.3065784 82.36336702 C-14.30749572 74.73909694 -14.31326262 67.11489861 -14.33139801 59.49064827 C-14.34678203 53.00024162 -14.35192945 46.50992889 -14.34365991 40.01950748 C-14.33974767 36.70746797 -14.34233611 33.39565771 -14.35471725 30.08363342 C-14.36734989 26.49460164 -14.36160701 22.90605962 -14.35113525 19.31703186 C-14.35919166 18.26820471 -14.36724806 17.21937757 -14.3755486 16.13876778 C-14.31497752 7.29703049 -14.31497752 7.29703049 -10.98364258 3.34057617 C-7.30003221 0.4885897 -4.60568316 -0.02958683 0 0 Z " fill="#EFEFEF" transform="translate(70.983642578125,78.659423828125)"/>
<path d="M0 0 C1.75570312 0.76376953 1.75570312 0.76376953 3.546875 1.54296875 C25.29806682 11.50583562 39.73087733 27.84959599 48 50 C50.95324801 58.37611108 51.14556322 66.20151198 51 75 C51.68707031 74.96519531 52.37414062 74.93039063 53.08203125 74.89453125 C53.98308594 74.86746094 54.88414062 74.84039062 55.8125 74.8125 C57.15248047 74.76029297 57.15248047 74.76029297 58.51953125 74.70703125 C61 75 61 75 62.796875 76.328125 C64.68975612 78.95849227 64.44911305 80.85620866 64 84 C62.625 86.375 62.625 86.375 60 88 C56.63974091 88.32654555 53.36439507 88.23114165 50 88 C49.814375 88.99 49.814375 88.99 49.625 90 C48.85616903 93.69038865 47.91426825 97.34292699 47 101 C35.45 101 23.9 101 12 101 C12 114.86 12 128.72 12 143 C-10.56671464 153.5311335 -30.9909322 158.22948608 -55 150 C-73.88726377 142.52048483 -87.72116347 129.33555073 -98 112 C-98.51691406 111.18273437 -99.03382812 110.36546875 -99.56640625 109.5234375 C-108.17756113 94.36592781 -109.53472588 72.44845613 -105.7421875 55.58984375 C-99.4227578 33.53836012 -85.63530854 15.93431776 -66.02539062 4.11425781 C-60.95550522 1.32508749 -55.55519466 -0.42546016 -50 -2 C-49.00226563 -2.36222656 -48.00453125 -2.72445312 -46.9765625 -3.09765625 C-33.13436459 -7.00098411 -13.14917243 -5.83451499 0 0 Z " fill="#288CB3" transform="translate(217,176)"/>
<path d="M0 0 C1.18084671 0.00022659 2.36169342 0.00045319 3.57832336 0.00068665 C4.84306992 0.0161705 6.10781647 0.03165436 7.41088867 0.04760742 C8.71338058 0.05185226 10.0158725 0.05609711 11.35783386 0.06047058 C14.80868009 0.07188605 18.25914325 0.10132401 21.70983887 0.13458252 C25.23578714 0.1653551 28.76179774 0.1789912 32.2878418 0.1940918 C39.19750366 0.22619749 46.10691211 0.27735336 53.01635742 0.34057617 C53.14863235 1.30135071 53.28090729 2.26212524 53.41719055 3.25201416 C53.59340439 4.51261658 53.76961823 5.77321899 53.95117188 7.07202148 C54.21145927 8.94630829 54.21145927 8.94630829 54.477005 10.85845947 C56.16040471 21.72666744 60.26119913 30.71427075 67.01635742 39.34057617 C67.72521544 40.50692412 68.43358812 41.67356724 69.14135742 42.84057617 C71.66576046 46.37474042 74.99289439 48.94082954 78.39135742 51.59057617 C78.9329248 52.01532227 79.47449219 52.44006836 80.0324707 52.87768555 C83.84664775 55.7483016 87.56705044 57.60884122 92.01635742 59.34057617 C92.70600586 59.61901367 93.3956543 59.89745117 94.10620117 60.18432617 C101.5287379 62.82066057 109.27827034 64.00183963 117.01635742 65.34057617 C117.01635742 65.67057617 117.01635742 66.00057617 117.01635742 66.34057617 C82.36635742 66.34057617 47.71635742 66.34057617 12.01635742 66.34057617 C12.10683336 104.25371838 12.10683336 104.25371838 12.2253418 142.16674805 C12.27988382 157.62205936 12.33129407 173.07733709 12.36279297 188.53271484 C12.38574504 199.78755606 12.41911181 211.04230958 12.46505898 222.29708129 C12.4890288 228.25806697 12.50773295 234.2189656 12.51397133 240.1799984 C12.52000515 245.78847696 12.53994336 251.39673268 12.57063293 257.00512886 C12.5794405 259.06547373 12.58313014 261.12584769 12.58136559 263.18621063 C12.57971866 265.99607832 12.59636253 268.80526198 12.61763 271.61503601 C12.61278243 272.43313474 12.60793485 273.25123347 12.60294038 274.09412307 C12.66110083 278.74006232 13.32974634 281.55283412 16.01635742 285.34057617 C16.01635742 286.00057617 16.01635742 286.66057617 16.01635742 287.34057617 C18.32635742 288.00057617 20.63635742 288.66057617 23.01635742 289.34057617 C23.01635742 290.00057617 23.01635742 290.66057617 23.01635742 291.34057617 C19.01473117 291.46504057 15.0138684 291.55531451 11.01074219 291.61523438 C9.65181835 291.64023535 8.29302703 291.67424895 6.93457031 291.71777344 C-5.79278645 292.11506515 -5.79278645 292.11506515 -10.35473633 289.07104492 C-13.95951118 285.32700685 -14.10746365 282.63673839 -14.11507034 277.58319187 C-14.11891149 276.62386078 -14.12275263 275.6645297 -14.12671018 274.67612797 C-14.12584369 273.6250701 -14.12497721 272.57401223 -14.12408447 271.49110413 C-14.12705559 270.37232091 -14.13002672 269.25353769 -14.13308787 268.10085195 C-14.14178471 264.33838598 -14.14328395 260.5759518 -14.14477539 256.81347656 C-14.14940278 254.12152455 -14.15440663 251.42957544 -14.15982056 248.73762512 C-14.17339761 241.4154474 -14.17942727 234.09327515 -14.18383121 226.77108693 C-14.18659401 222.20002009 -14.19083136 217.62895535 -14.19533539 213.05788994 C-14.20752592 200.40380136 -14.21782652 187.74971448 -14.22121048 175.09562016 C-14.22143005 174.28589297 -14.22164961 173.47616578 -14.22187583 172.6419014 C-14.22209411 171.83023535 -14.22231239 171.0185693 -14.22253728 170.1823073 C-14.22298075 168.53755383 -14.22342731 166.89280035 -14.22387695 165.24804688 C-14.22409838 164.43219199 -14.22431981 163.6163371 -14.22454795 162.77575933 C-14.22849803 149.5488529 -14.24595939 136.32200149 -14.26923648 123.09511632 C-14.29293754 109.51786436 -14.30541172 95.94064002 -14.3065784 82.36336702 C-14.30749572 74.73909694 -14.31326262 67.11489861 -14.33139801 59.49064827 C-14.34678203 53.00024162 -14.35192945 46.50992889 -14.34365991 40.01950748 C-14.33974767 36.70746797 -14.34233611 33.39565771 -14.35471725 30.08363342 C-14.36734989 26.49460164 -14.36160701 22.90605962 -14.35113525 19.31703186 C-14.35919166 18.26820471 -14.36724806 17.21937757 -14.3755486 16.13876778 C-14.31497752 7.29703049 -14.31497752 7.29703049 -10.98364258 3.34057617 C-7.30003221 0.4885897 -4.60568316 -0.02958683 0 0 Z " fill="#D2D2D2" transform="translate(70.983642578125,78.659423828125)"/>
<path d="M0 0 C43.89 0 87.78 0 133 0 C133 8.91 133 17.82 133 27 C124.42 27 115.84 27 107 27 C107 53.07 107 79.14 107 106 C80.6 106 54.2 106 27 106 C27 79.93 27 53.86 27 27 C18.09 27 9.18 27 0 27 C0 18.09 0 9.18 0 0 Z " fill="#3BC7B3" transform="translate(241,290)"/>
<path d="M0 0 C0.87841553 0.00563965 1.75683105 0.0112793 2.66186523 0.01708984 C16.09036396 0.26804338 28.36465461 4.81594773 38.125 14.3125 C38.125 14.9725 38.125 15.6325 38.125 16.3125 C39.61 16.8075 39.61 16.8075 41.125 17.3125 C41.8125 19.375 41.8125 19.375 42.125 21.3125 C42.785 21.3125 43.445 21.3125 44.125 21.3125 C45.45032061 23.82728831 46.76020231 26.34831987 48.0625 28.875 C48.43568359 29.57947266 48.80886719 30.28394531 49.19335938 31.00976562 C52.9938067 38.43946896 53.3059414 45.47612874 53.3125 53.6875 C53.32474609 54.48671875 53.33699219 55.2859375 53.34960938 56.109375 C53.36837776 63.84194771 52.4789103 70.78163455 48.125 77.3125 C47.83367187 78.0859375 47.54234375 78.859375 47.2421875 79.65625 C42.60874959 90.67281567 31.53328753 99.29781034 20.75 103.8125 C14.03023957 106.30643171 7.39359884 106.49471165 0.3125 106.5 C-0.53892578 106.51224609 -1.39035156 106.52449219 -2.26757812 106.53710938 C-16.84938161 106.57042652 -28.24835608 101.26306054 -38.875 91.3125 C-43.71059179 86.07462638 -47.45850264 81.02499268 -49.875 74.3125 C-50.24625 73.6525 -50.6175 72.9925 -51 72.3125 C-53.52505518 66.5409453 -53.05783897 59.61802103 -53.0625 53.4375 C-53.07474609 52.59058594 -53.08699219 51.74367187 -53.09960938 50.87109375 C-53.11989455 42.04028221 -51.6188201 34.93588721 -47.25 27.25 C-46.61835938 26.12464844 -45.98671875 24.99929687 -45.3359375 23.83984375 C-44.85382813 23.00582031 -44.37171875 22.17179687 -43.875 21.3125 C-43.215 21.3125 -42.555 21.3125 -41.875 21.3125 C-41.771875 20.673125 -41.66875 20.03375 -41.5625 19.375 C-41.335625 18.694375 -41.10875 18.01375 -40.875 17.3125 C-39.885 16.9825 -38.895 16.6525 -37.875 16.3125 C-37.6275 15.735 -37.38 15.1575 -37.125 14.5625 C-33.5901533 8.19977595 -23.6762186 3.71399123 -16.89697266 1.73510742 C-11.24063122 0.34305412 -5.81150196 -0.03924039 0 0 Z " fill="#F9B402" transform="translate(188.875,25.6875)"/>
<path d="M0 0 C0.79857422 -0.01224609 1.59714844 -0.02449219 2.41992188 -0.03710938 C19.59093064 -0.07909228 34.60133374 8.67440356 46.66796875 20.31640625 C58.94469637 33.04333826 64.74595129 48.60577627 64.4375 66.1875 C63.40689453 66.24357422 63.40689453 66.24357422 62.35546875 66.30078125 C61.45441406 66.36652344 60.55335938 66.43226563 59.625 66.5 C58.73167969 66.55800781 57.83835937 66.61601562 56.91796875 66.67578125 C54.08309642 67.26061318 53.34698857 68.1156209 51.4375 70.1875 C47.95717799 69.92647585 46.38653702 69.15352468 43.4375 67.1875 C40.8317313 66.83244575 40.8317313 66.83244575 38 66.875 C37.05253906 66.85824219 36.10507813 66.84148437 35.12890625 66.82421875 C32.02473981 67.24321364 30.83713692 68.25877304 28.4375 70.1875 C22.26427165 70.84891732 22.26427165 70.84891732 19.5625 68.6875 C16.86697501 66.78477648 15.20817884 66.78554386 11.9375 66.8125 C10.9990625 66.80476563 10.060625 66.79703125 9.09375 66.7890625 C6.03228342 67.24828249 4.83042431 68.30454317 2.4375 70.1875 C0.4375 70.5859375 0.4375 70.5859375 -1.5625 70.5625 C-2.2225 70.57023437 -2.8825 70.57796875 -3.5625 70.5859375 C-5.5625 70.1875 -5.5625 70.1875 -7.46875 68.6875 C-10.14309676 66.77155008 -11.80228969 66.78563013 -15.0625 66.8125 C-16.0009375 66.80476563 -16.939375 66.79703125 -17.90625 66.7890625 C-20.96323921 67.24761088 -22.18742728 68.28744182 -24.5625 70.1875 C-30.73572835 70.84891732 -30.73572835 70.84891732 -33.4375 68.6875 C-36.13302499 66.78477648 -37.79182116 66.78554386 -41.0625 66.8125 C-42.0009375 66.80476563 -42.939375 66.79703125 -43.90625 66.7890625 C-46.96168413 67.24737762 -48.20183233 68.2691469 -50.5625 70.1875 C-57.08487484 71.21061762 -61.24269726 68.56515254 -66.5625 65.1875 C-67.20526691 48.66600974 -63.32481626 35.55051203 -52.1875 22.875 C-37.00573975 7.02421303 -21.93497309 0.01778992 0 0 Z " fill="#63C7EE" transform="translate(190.5625,184.8125)"/>
<path d="M0 0 C1.75570312 0.76376953 1.75570312 0.76376953 3.546875 1.54296875 C25.29806682 11.50583562 39.73087733 27.84959599 48 50 C50.95324801 58.37611108 51.14556322 66.20151198 51 75 C51.68707031 74.96519531 52.37414062 74.93039063 53.08203125 74.89453125 C53.98308594 74.86746094 54.88414062 74.84039062 55.8125 74.8125 C57.15248047 74.76029297 57.15248047 74.76029297 58.51953125 74.70703125 C61 75 61 75 62.796875 76.328125 C64.68975612 78.95849227 64.44911305 80.85620866 64 84 C62.625 86.375 62.625 86.375 60 88 C56.63974091 88.32654555 53.36439507 88.23114165 50 88 C49.814375 88.99 49.814375 88.99 49.625 90 C48.85479462 93.69698583 47.93049337 97.34005942 47 101 C42.38 101 37.76 101 33 101 C34.875 91.375 34.875 91.375 36 88 C34.906875 88.04125 33.81375 88.0825 32.6875 88.125 C29 88 29 88 26 86 C25.3828125 84.16015625 25.3828125 84.16015625 25.125 82.0625 C25.02445313 81.37285156 24.92390625 80.68320312 24.8203125 79.97265625 C25 78 25 78 26.18701172 76.38842773 C28.62174319 74.5238549 30.15892641 74.69450363 33.1875 74.8125 C34.08855469 74.83957031 34.98960937 74.86664063 35.91796875 74.89453125 C36.94857422 74.94673828 36.94857422 74.94673828 38 75 C35.90044251 53.65449884 29.19954227 37.72513725 12.859375 23.328125 C-2.75690134 10.61323333 -20.15610783 8.63949187 -39.59375 10.30859375 C-45.9381707 11.23245914 -51.33017269 13.04092954 -57 16 C-58.09054688 16.52207031 -58.09054688 16.52207031 -59.203125 17.0546875 C-65.72137306 20.35939368 -70.80274011 24.9097163 -76 30 C-76.55558594 30.51949219 -77.11117187 31.03898437 -77.68359375 31.57421875 C-89.17626433 43.44063472 -93.53428182 60.96436384 -93.34545898 76.9362793 C-92.83904596 93.33201154 -86.62862387 109.28788231 -75.015625 121.15234375 C-60.61160116 134.35603227 -43.41490487 141.21345824 -23.8203125 140.4453125 C-12.20614791 139.60939153 -1.94735378 135.62903565 7.77734375 129.35546875 C10 128 10 128 12 128 C12 132.95 12 137.9 12 143 C-9.03312847 153.6186668 -30.01888772 157.82825514 -53.015625 150.68017578 C-72.80520111 143.89698692 -87.49496668 129.71703807 -98 112 C-98.51691406 111.18273437 -99.03382812 110.36546875 -99.56640625 109.5234375 C-108.17756113 94.36592781 -109.53472588 72.44845613 -105.7421875 55.58984375 C-99.4227578 33.53836012 -85.63530854 15.93431776 -66.02539062 4.11425781 C-60.95550522 1.32508749 -55.55519466 -0.42546016 -50 -2 C-49.00226563 -2.36222656 -48.00453125 -2.72445312 -46.9765625 -3.09765625 C-33.13436459 -7.00098411 -13.14917243 -5.83451499 0 0 Z " fill="#525354" transform="translate(217,176)"/>
<path d="M0 0 C7.60622012 -0.06959844 15.2124071 -0.12286116 22.81887341 -0.15543652 C26.35112466 -0.17107343 29.88315759 -0.19227501 33.4152832 -0.22631836 C37.47869937 -0.26523603 41.54188721 -0.27972547 45.60546875 -0.29296875 C46.8702153 -0.30845261 48.13496185 -0.32393646 49.43803406 -0.33988953 C50.61888077 -0.34011612 51.79972748 -0.34034271 53.01635742 -0.34057617 C54.05338303 -0.34723801 55.09040863 -0.35389984 56.15885925 -0.36076355 C59.54227279 0.06885694 61.30762857 0.91546713 64 3 C74.81665383 21.02775638 67 44.97620396 67 66 C23.44 66 -20.12 66 -65 66 C-65 65.67 -65 65.34 -65 65 C-63.65808594 64.83564453 -63.65808594 64.83564453 -62.2890625 64.66796875 C-52.93761662 63.44171305 -44.00741398 62.2620149 -36 57 C-35.22269531 56.70867187 -34.44539063 56.41734375 -33.64453125 56.1171875 C-20.45181949 50.54390011 -10.80842729 36.92150412 -5.28515625 24.26953125 C-2.75734585 17.8385972 -1.13108237 11.69061617 -0.46606445 4.81713867 C-0.3781514 3.91541428 -0.29023834 3.01368988 -0.19966125 2.0846405 C-0.13377304 1.39670914 -0.06788483 0.70877777 0 0 Z " fill="#EFEFEF" transform="translate(254,79)"/>
<path d="M0 0 C1.02574883 0.00212242 1.02574883 0.00212242 2.07221985 0.00428772 C4.25261847 0.00987749 6.43291376 0.02242803 8.61328125 0.03515625 C10.09309747 0.04017258 11.57291531 0.04473525 13.05273438 0.04882812 C16.67711682 0.05984354 20.30143895 0.07710113 23.92578125 0.09765625 C24.04477783 1.01836914 24.16377441 1.93908203 24.28637695 2.88769531 C26.14484916 16.66151069 29.18406604 28.00862862 37.92578125 39.09765625 C38.76371295 40.34457842 39.5974848 41.59431294 40.42578125 42.84765625 C42.71695355 46.08135094 45.48280139 48.47148468 48.5703125 50.93359375 C49.01761719 51.31773437 49.46492188 51.701875 49.92578125 52.09765625 C49.92578125 52.42765625 49.92578125 52.75765625 49.92578125 53.09765625 C28.14578125 53.09765625 6.36578125 53.09765625 -16.07421875 53.09765625 C-16.07421875 44.51765625 -16.07421875 35.93765625 -16.07421875 27.09765625 C-11.78421875 27.09765625 -7.49421875 27.09765625 -3.07421875 27.09765625 C-3.07421875 22.47765625 -3.07421875 17.85765625 -3.07421875 13.09765625 C-7.36421875 13.09765625 -11.65421875 13.09765625 -16.07421875 13.09765625 C-15.82063345 8.78670617 -15.48961965 6.60050997 -12.69921875 3.22265625 C-8.48760157 -0.18674814 -5.27067491 -0.02151296 0 0 Z " fill="#EFEFEF" transform="translate(100.07421875,78.90234375)"/>
<path d="M0 0 C-3.12899128 2.08599418 -5.51668391 2.77754602 -9.125 3.75 C-15.30694179 5.60458254 -19.93458808 8.05578598 -25 12 C-25.59039062 12.40476562 -26.18078125 12.80953125 -26.7890625 13.2265625 C-34.67162729 19.09349429 -41.56113275 30.07337659 -43.62890625 39.69921875 C-45.098476 52.77065495 -45.40315503 65.15011056 -39 77 C-38.48050781 77.97324219 -37.96101563 78.94648437 -37.42578125 79.94921875 C-30.88591619 91.12339378 -21.07940769 99.20876678 -8.6328125 103.03515625 C-5.76442945 103.76068843 -2.90148832 104.42274054 0 105 C0 105.33 0 105.66 0 106 C-18.12262856 106.40025437 -31.21790179 103.90525999 -45 91 C-49.83559179 85.76212638 -53.58350264 80.71249268 -56 74 C-56.37125 73.34 -56.7425 72.68 -57.125 72 C-59.65005518 66.2284453 -59.18283897 59.30552103 -59.1875 53.125 C-59.19974609 52.27808594 -59.21199219 51.43117187 -59.22460938 50.55859375 C-59.24489455 41.72778221 -57.7438201 34.62338721 -53.375 26.9375 C-52.74335938 25.81214844 -52.11171875 24.68679687 -51.4609375 23.52734375 C-50.97882813 22.69332031 -50.49671875 21.85929687 -50 21 C-49.34 21 -48.68 21 -48 21 C-47.896875 20.360625 -47.79375 19.72125 -47.6875 19.0625 C-47.460625 18.381875 -47.23375 17.70125 -47 17 C-46.01 16.67 -45.02 16.34 -44 16 C-43.7525 15.4225 -43.505 14.845 -43.25 14.25 C-39.57867772 7.64161989 -29.75244406 3.73303411 -22.921875 1.2421875 C-15.50538993 -0.76762334 -7.61416854 -0.16816569 0 0 Z " fill="#DD9800" transform="translate(195,26)"/>
<path d="M0 0 C1.37612961 0.01397324 1.37612961 0.01397324 2.78005981 0.02822876 C5.81045549 0.06258559 8.84005206 0.11848258 11.87011719 0.17456055 C13.97188621 0.20259473 16.07367356 0.22928503 18.17547607 0.25468445 C23.70606661 0.32513474 29.23621953 0.41385439 34.76647949 0.50634766 C40.41024979 0.59751672 46.05424276 0.6714518 51.69824219 0.74682617 C62.7714454 0.89725255 73.84426282 1.06697526 84.91699219 1.2487793 C84.91699219 5.5387793 84.91699219 9.8287793 84.91699219 14.2487793 C41.35699219 14.2487793 -2.20300781 14.2487793 -47.08300781 14.2487793 C-47.08300781 13.9187793 -47.08300781 13.5887793 -47.08300781 13.2487793 C-46.18839844 13.13920898 -45.29378906 13.02963867 -44.37207031 12.91674805 C-35.02062443 11.69049235 -26.09042179 10.5107942 -18.08300781 5.2487793 C-17.23738281 4.9187793 -16.39175781 4.5887793 -15.52050781 4.2487793 C-13.05574982 3.41542522 -13.05574982 3.41542522 -11.49835205 1.701828 C-7.78101142 -0.53448966 -4.25410579 -0.09907962 0 0 Z " fill="#D2D2D2" transform="translate(236.0830078125,130.751220703125)"/>
<path d="M0 0 C3 0 3 0 4.6875 1.5 C5.120625 1.995 5.55375 2.49 6 3 C5.02865406 5.05616687 4.05615898 6.92324939 2.7109375 8.76171875 C-2.34608596 16.05152157 -2.2067732 24.47835725 -1 33 C1.30346573 41.57462363 7.43206691 47.72539381 14.97265625 52.16015625 C22.62465532 55.53834886 30.5838272 54.84106295 38.25 51.9375 C45.73591456 48.47574936 51.25850483 43.63880517 54.3359375 35.8515625 C56.2192278 27.76449237 56.76710802 18.0990464 52.625 10.6875 C51.76499986 9.44779219 50.89096114 8.21764689 50 7 C49.31028912 5.67843989 48.63674615 4.34787854 48 3 C49.25 1.4375 49.25 1.4375 51 0 C52.9140625 0.1171875 52.9140625 0.1171875 55 1 C56.6328125 3.07421875 56.6328125 3.07421875 58.125 5.6875 C58.62257813 6.53699219 59.12015625 7.38648438 59.6328125 8.26171875 C64.08595992 17.18073687 64.92646531 27.99474263 61.8671875 37.53125 C60.42326753 40.524927 58.85645765 43.24525639 57 46 C56.54367188 46.68578125 56.08734375 47.3715625 55.6171875 48.078125 C51.76000916 53.14755938 46.55010861 56.04177379 41 59 C40.3822168 59.34836914 39.76443359 59.69673828 39.12792969 60.05566406 C32.20151626 63.12947856 20.90087503 62.04771703 13.7421875 60.125 C11.26133144 58.9428993 9.18828291 57.65804513 7 56 C6.2884375 55.49210937 5.576875 54.98421875 4.84375 54.4609375 C-0.57030495 50.19837932 -3.81968464 45.04665053 -7 39 C-7.37640625 38.41863281 -7.7528125 37.83726563 -8.140625 37.23828125 C-10.91922886 30.0012812 -10.05036612 18.48415741 -7.3125 11.3125 C-5.2956379 7.18579988 -2.97084841 3.50407761 0 0 Z " fill="#F0EBDF" transform="translate(162,54)"/>
<path d="M0 0 C4.29 0 8.58 0 13 0 C13 26.07 13 52.14 13 79 C8.71 79 4.42 79 0 79 C0 52.93 0 26.86 0 0 Z " fill="#1DA996" transform="translate(268,317)"/>
<path d="M0 0 C3.01299308 1.77417981 5.4111938 3.82238761 7 7 C7.49433314 12.03247344 7.81849917 16.48892461 5.375 21 C1.77238643 24.03377985 -1.30979981 25.75351247 -6 26.4375 C-10.62180563 25.76348668 -13.45659563 23.43696269 -16.8125 20.3125 C-18.67828809 16.6791232 -19.11654121 13.0643748 -19 9 C-15.52744407 0.31861018 -8.45735903 -2.11433976 0 0 Z " fill="#F96854" transform="translate(287,93)"/>
<path d="M0 0 C4.62 0 9.24 0 14 0 C14 8.91 14 17.82 14 27 C9.38 27 4.76 27 0 27 C0 18.09 0 9.18 0 0 Z " fill="#1EAA96" transform="translate(241,290)"/>
<path d="M0 0 C8.58 0 17.16 0 26 0 C25.04455548 5.7326671 24.72327454 7.05770931 21 11 C16.95154115 13.69897256 13.75041428 13.53620196 9 13 C4.87309807 11.2575303 2.41615721 8.75846676 0 5 C0 3.35 0 1.7 0 0 Z " fill="#018D79" transform="translate(295,290)"/>
<path d="M0 0 C4.62 0 9.24 0 14 0 C14 4.62 14 9.24 14 14 C3.94140625 14.09765625 3.94140625 14.09765625 1 14 C0 13 0 13 -0.09765625 10.05859375 C-0.06510417 6.70572917 -0.03255208 3.35286458 0 0 Z " fill="#606060" transform="translate(83,92)"/>
<path d="M0 0 C4.29 0 8.58 0 13 0 C13 4.62 13 9.24 13 14 C8.71 14 4.42 14 0 14 C0 9.38 0 4.76 0 0 Z " fill="#5A5A5A" transform="translate(110,92)"/>
<path d="M0 0 C1.98 0 3.96 0 6 0 C6 8.58 6 17.16 6 26 C4.02 26 2.04 26 0 26 C0 17.42 0 8.84 0 0 Z " fill="#F0F0F0" transform="translate(186,40)"/>
</svg>
